<svg xmlns="http://www.w3.org/2000/svg" viewBox="0 0 308 108" role="img" aria-label="allsan sistemas">
<defs><linearGradient id="gA" x1="0" y1="0" x2="1" y2="1"><stop offset="0" stop-color="#34d399"/><stop offset="1" stop-color="#059669"/></linearGradient></defs>
<rect x="6.00" y="6.00" width="96.00" height="96.00" rx="24.00" fill="url(#gA)"/><g fill="#ffffff" opacity="0.15"><circle cx="22.00" cy="22.00" r="1.30"/><circle cx="22.00" cy="38.00" r="1.30"/><circle cx="22.00" cy="54.00" r="1.30"/><circle cx="22.00" cy="70.00" r="1.30"/><circle cx="22.00" cy="86.00" r="1.30"/><circle cx="38.00" cy="22.00" r="1.30"/><circle cx="38.00" cy="38.00" r="1.30"/><circle cx="38.00" cy="54.00" r="1.30"/><circle cx="38.00" cy="70.00" r="1.30"/><circle cx="38.00" cy="86.00" r="1.30"/><circle cx="54.00" cy="22.00" r="1.30"/><circle cx="54.00" cy="38.00" r="1.30"/><circle cx="54.00" cy="54.00" r="1.30"/><circle cx="54.00" cy="70.00" r="1.30"/><circle cx="54.00" cy="86.00" r="1.30"/><circle cx="70.00" cy="22.00" r="1.30"/><circle cx="70.00" cy="38.00" r="1.30"/><circle cx="70.00" cy="54.00" r="1.30"/><circle cx="70.00" cy="70.00" r="1.30"/><circle cx="70.00" cy="86.00" r="1.30"/><circle cx="86.00" cy="22.00" r="1.30"/><circle cx="86.00" cy="38.00" r="1.30"/><circle cx="86.00" cy="54.00" r="1.30"/><circle cx="86.00" cy="70.00" r="1.30"/><circle cx="86.00" cy="86.00" r="1.30"/></g><path d="M30.00,79.00 L51.00,35.00 L72.00,79.00" stroke="#ffffff" stroke-width="8.00" stroke-linecap="round" stroke-linejoin="round" fill="none"/><path d="M38.10,62.00 L74.20,62.00" stroke="#ffffff" stroke-width="8.00" stroke-linecap="round" fill="none"/><circle cx="81.00" cy="62.00" r="5.00" fill="none" stroke="#ffffff" stroke-width="3.40"/>
<g transform="translate(128.00,65.86)"><path d="M14.336 0.768Q8.704 0.768 5.408 -1.9200000000000004Q2.112 -4.6080000000000005 2.112 -9.344Q2.112 -13.76 5.184 -16.64Q8.256 -19.52 14.528 -20.544L24.192 -22.080000000000002V-23.04Q24.192 -25.024 22.624000000000002 -26.368000000000002Q21.056 -27.712 18.368000000000002 -27.712Q15.808 -27.712 13.856 -26.304000000000002Q11.904 -24.896 11.008000000000001 -22.592L3.3280000000000003 -26.240000000000002Q4.864 -30.592000000000002 9.056000000000001 -33.152Q13.248000000000001 -35.712 18.816 -35.712Q23.232 -35.712 26.624000000000002 -34.112Q30.016000000000002 -32.512 31.904000000000003 -29.664Q33.792 -26.816 33.792 -23.04V0.0H24.832V-3.2640000000000002Q20.864 0.768 14.336 0.768ZM12.032 -9.664Q12.032 -8.064 13.248000000000001 -7.168Q14.464 -6.272 16.256 -6.272Q19.84 -6.272 22.016 -8.512Q24.192 -10.752 24.192 -13.952V-15.040000000000001L16.256 -13.632Q14.208 -13.248000000000001 13.120000000000001 -12.32Q12.032 -11.392 12.032 -9.664Z M39.87200000000001 0.0V-48.448H49.47200000000001V0.0Z M55.55200000000001 0.0V-48.448H65.152V0.0Z" fill="#1a1a1a"/><path d="M84.928 0.768Q79.168 0.768 74.912 -1.952Q70.656 -4.672 69.12 -9.28L76.16 -12.608Q77.504 -9.792 79.808 -8.192Q82.11200000000001 -6.5920000000000005 84.928 -6.5920000000000005Q89.152 -6.5920000000000005 89.152 -9.728Q89.152 -11.84 85.696 -12.8L79.744 -14.464Q75.456 -15.68 73.152 -18.4Q70.848 -21.12 70.848 -24.832Q70.848 -28.096 72.512 -30.528Q74.176 -32.96 77.184 -34.336Q80.19200000000001 -35.712 84.096 -35.712Q89.21600000000001 -35.712 93.08800000000001 -33.312Q96.96000000000001 -30.912 98.56 -26.560000000000002L91.456 -23.232Q90.688 -25.408 88.672 -26.72Q86.656 -28.032 84.096 -28.032Q82.24000000000001 -28.032 81.184 -27.264000000000003Q80.128 -26.496000000000002 80.128 -25.152Q80.128 -23.104 83.904 -22.016000000000002L89.47200000000001 -20.352Q93.82400000000001 -19.072 96.12800000000001 -16.48Q98.432 -13.888 98.432 -10.112Q98.432 -5.248 94.72 -2.24Q91.00800000000001 0.768 84.928 0.768Z M114.048 0.768Q108.416 0.768 105.12 -1.9200000000000004Q101.824 -4.6080000000000005 101.824 -9.344Q101.824 -13.76 104.896 -16.64Q107.968 -19.52 114.24000000000001 -20.544L123.904 -22.080000000000002V-23.04Q123.904 -25.024 122.336 -26.368000000000002Q120.768 -27.712 118.08000000000001 -27.712Q115.52000000000001 -27.712 113.56800000000001 -26.304000000000002Q111.616 -24.896 110.72 -22.592L103.04 -26.240000000000002Q104.57600000000001 -30.592000000000002 108.768 -33.152Q112.96000000000001 -35.712 118.528 -35.712Q122.944 -35.712 126.33600000000001 -34.112Q129.728 -32.512 131.616 -29.664Q133.50400000000002 -26.816 133.50400000000002 -23.04V0.0H124.54400000000001V-3.2640000000000002Q120.57600000000001 0.768 114.048 0.768ZM111.744 -9.664Q111.744 -8.064 112.96000000000001 -7.168Q114.176 -6.272 115.968 -6.272Q119.552 -6.272 121.72800000000001 -8.512Q123.904 -10.752 123.904 -13.952V-15.040000000000001L115.968 -13.632Q113.92 -13.248000000000001 112.832 -12.32Q111.744 -11.392 111.744 -9.664Z M139.584 0.0V-34.944H148.54399999999998V-30.656000000000002Q149.888 -33.216 152.44799999999998 -34.464Q155.00799999999998 -35.712 158.33599999999998 -35.712Q162.304 -35.712 165.28 -34.048Q168.256 -32.384 169.92000000000002 -29.408Q171.584 -26.432000000000002 171.584 -22.464000000000002V0.0H161.98399999999998V-20.416Q161.98399999999998 -23.424 160.192 -25.247999999999998Q158.4 -27.072 155.584 -27.072Q152.768 -27.072 150.976 -25.247999999999998Q149.184 -23.424 149.184 -20.416V0.0Z" fill="#059669"/></g>
<g transform="translate(128.00,90.59)"><path d="M5.2235 0.186Q4.1385 0.186 3.18525 -0.20925000000000002Q2.232 -0.6045 1.5422500000000001 -1.3330000000000002Q0.8525 -2.0615 0.5115 -3.0535L2.48 -3.937Q2.914 -2.9915 3.6812500000000004 -2.449Q4.4485 -1.9065 5.3785 -1.9065Q6.107 -1.9065 6.54875 -2.23975Q6.9905 -2.573 6.9905 -3.131Q6.9905 -3.937 5.9675 -4.278L3.7045 -5.022Q0.9299999999999999 -5.9365 0.9299999999999999 -8.2925Q0.9299999999999999 -9.3155 1.4337499999999999 -10.090499999999999Q1.9375 -10.865499999999999 2.8442499999999997 -11.299499999999998Q3.751 -11.7335 4.929 -11.7335Q6.4945 -11.7335 7.68025 -10.95075Q8.866 -10.168 9.3465 -8.804L7.3934999999999995 -7.9205Q7.068 -8.7265 6.417 -9.18375Q5.766 -9.641 4.929 -9.641Q4.2005 -9.641 3.751 -9.29225Q3.3015 -8.9435 3.3015 -8.3855Q3.3015 -7.564 4.3555 -7.2075L6.572 -6.4945Q9.3465 -5.5955 9.3465 -3.2705Q9.3465 -2.263 8.819500000000001 -1.4802499999999998Q8.2925 -0.6975 7.37025 -0.25575000000000003Q6.448 0.186 5.2235 0.186Z M24.88771428571429 0.0V-11.5475H27.29021428571429V0.0Z M47.37292857142858 0.186Q46.28792857142858 0.186 45.33467857142858 -0.20925000000000002Q44.38142857142858 -0.6045 43.69167857142858 -1.3330000000000002Q43.00192857142858 -2.0615 42.66092857142858 -3.0535L44.629428571428576 -3.937Q45.06342857142858 -2.9915 45.83067857142858 -2.449Q46.59792857142858 -1.9065 47.52792857142858 -1.9065Q48.25642857142858 -1.9065 48.69817857142858 -2.23975Q49.13992857142858 -2.573 49.13992857142858 -3.131Q49.13992857142858 -3.937 48.11692857142858 -4.278L45.85392857142858 -5.022Q43.07942857142858 -5.9365 43.07942857142858 -8.2925Q43.07942857142858 -9.3155 43.583178571428576 -10.090499999999999Q44.08692857142858 -10.865499999999999 44.993678571428575 -11.299499999999998Q45.90042857142858 -11.7335 47.07842857142858 -11.7335Q48.64392857142858 -11.7335 49.82967857142858 -10.95075Q51.01542857142858 -10.168 51.49592857142858 -8.804L49.542928571428575 -7.9205Q49.21742857142858 -8.7265 48.566428571428574 -9.18375Q47.91542857142858 -9.641 47.07842857142858 -9.641Q46.34992857142858 -9.641 45.90042857142858 -9.29225Q45.45092857142858 -8.9435 45.45092857142858 -8.3855Q45.45092857142858 -7.564 46.50492857142858 -7.2075L48.72142857142858 -6.4945Q51.49592857142858 -5.5955 51.49592857142858 -3.2705Q51.49592857142858 -2.263 50.96892857142858 -1.4802499999999998Q50.441928571428576 -0.6975 49.51967857142858 -0.25575000000000003Q48.59742857142858 0.186 47.37292857142858 0.186Z M69.11414285714287 0.0V-9.455H66.18464285714288V-11.5475H74.39964285714288V-9.455H71.51664285714287V0.0Z M89.42935714285714 0.0V-11.5475H97.19485714285715V-9.455H91.83185714285715V-6.8355H96.88485714285714V-4.743H91.83185714285715V-2.0925H97.19485714285715V0.0Z M112.39507142857144 0.0V-11.5475H114.72007142857144L118.48657142857144 -6.541L122.16007142857144 -11.5475H124.48507142857144V0.0H122.08257142857144V-7.4399999999999995L118.59507142857144 -2.945H118.28507142857144L114.79757142857144 -7.6105V0.0Z M139.51478571428572 0.0 143.42078571428573 -11.5475H146.6137857142857L150.51978571428572 0.0H147.90028571428573L147.12528571428572 -2.356H142.8937857142857L142.1187857142857 0.0ZM143.56028571428573 -4.4485H146.4587857142857L145.01728571428572 -8.897Z M169.595 0.186Q168.51 0.186 167.55675 -0.20925000000000002Q166.6035 -0.6045 165.91375 -1.3330000000000002Q165.224 -2.0615 164.883 -3.0535L166.8515 -3.937Q167.28549999999998 -2.9915 168.05275 -2.449Q168.82 -1.9065 169.75 -1.9065Q170.4785 -1.9065 170.92025 -2.23975Q171.362 -2.573 171.362 -3.131Q171.362 -3.937 170.339 -4.278L168.076 -5.022Q165.3015 -5.9365 165.3015 -8.2925Q165.3015 -9.3155 165.80525 -10.090499999999999Q166.309 -10.865499999999999 167.21575 -11.299499999999998Q168.1225 -11.7335 169.3005 -11.7335Q170.86599999999999 -11.7335 172.05175 -10.95075Q173.2375 -10.168 173.718 -8.804L171.765 -7.9205Q171.4395 -8.7265 170.7885 -9.18375Q170.1375 -9.641 169.3005 -9.641Q168.572 -9.641 168.1225 -9.29225Q167.673 -8.9435 167.673 -8.3855Q167.673 -7.564 168.727 -7.2075L170.9435 -6.4945Q173.718 -5.5955 173.718 -3.2705Q173.718 -2.263 173.19099999999997 -1.4802499999999998Q172.664 -0.6975 171.74175 -0.25575000000000003Q170.8195 0.186 169.595 0.186Z" fill="#059669"/></g>
</svg>